<mxfile host="app.diagrams.net" modified="2023-05-20T19:58:06.873Z" agent="Mozilla/5.0 (Windows NT 6.1; Win64; x64) AppleWebKit/537.36 (KHTML, like Gecko) Chrome/102.0.0.0 Safari/537.36" version="21.3.2" etag="lolfwVULPU08bSzb7Cdp" type="github">
  <diagram name="第 1 页" id="WTng2oILbhm1o0uMqr-L">
    <mxGraphModel>
      <root>
        <mxCell id="0" />
        <mxCell id="1" parent="0" />
      </root>
    </mxGraphModel>
  </diagram>
</mxfile>
